<?xml version="1.0" standalone="no"?>
<!DOCTYPE svg PUBLIC "-//W3C//DTD SVG 20010904//EN"
 "http://www.w3.org/TR/2001/REC-SVG-20010904/DTD/svg10.dtd">
<svg version="1.0" xmlns="http://www.w3.org/2000/svg"
 width="300.000000pt" height="259.000000pt" viewBox="0 0 300.000000 259.000000"
 preserveAspectRatio="xMidYMid meet">
<metadata>
Created by potrace 1.10, written by Peter Selinger 2001-2011
</metadata>
<g transform="translate(0.000000,259.000000) scale(0.100000,-0.100000)"
fill="#000000" stroke="none">
<path d="M1474 1902 c-26 -17 -35 -92 -17 -141 7 -18 13 -35 13 -36 0 -6 -60
-11 -61 -6 -4 26 -10 70 -12 89 -1 12 -5 22 -9 22 -4 0 -15 8 -25 18 -22 23
-53 35 -53 21 0 -6 -5 -7 -12 -3 -7 4 -8 3 -4 -4 4 -7 2 -12 -4 -12 -14 0 -4
-51 12 -61 5 -3 9 -9 9 -13 -3 -18 1 -25 25 -51 l26 -28 -26 -26 c-25 -25 -26
-25 -26 -4 0 27 -85 103 -114 103 -52 -1 -56 -43 -8 -95 37 -39 75 -53 95 -36
10 8 14 7 14 -4 0 -8 -4 -15 -9 -15 -4 0 -8 -6 -8 -13 0 -7 -6 -20 -12 -28 -7
-8 -12 -12 -11 -10 4 6 -50 45 -66 48 -9 1 -39 5 -68 7 -46 4 -52 2 -58 -17
-4 -12 -7 -25 -6 -29 1 -5 -16 -9 -36 -10 -54 -2 -64 -3 -103 -13 -19 -5 -37
-9 -40 -10 -39 -10 -127 -85 -155 -132 -11 -18 -23 -33 -28 -33 -4 0 -6 -4 -3
-9 3 -5 -1 -22 -9 -37 -30 -58 -9 -108 41 -99 158 27 354 -8 547 -98 l90 -41
-49 -13 c-47 -12 -53 -11 -137 23 -49 20 -98 34 -108 31 -12 -3 -17 -1 -12 6
4 7 0 8 -11 4 -10 -4 -30 -7 -44 -8 -15 0 4 -8 43 -19 39 -10 82 -23 96 -28
15 -6 37 -8 50 -5 17 3 20 2 11 -5 -11 -7 -11 -10 3 -15 9 -4 13 -3 10 3 -10
16 11 12 25 -5 10 -12 9 -15 -4 -15 -9 0 -31 -7 -48 -16 -26 -13 -38 -14 -69
-5 -22 7 -46 8 -60 3 l-23 -9 25 -6 c13 -3 36 -4 49 -1 18 4 21 3 11 -4 -11
-8 -11 -10 0 -14 12 -4 12 -7 0 -21 -7 -9 -11 -23 -8 -32 4 -8 2 -17 -3 -20
-32 -20 18 -125 59 -125 9 0 25 -6 36 -14 32 -22 83 -29 210 -30 66 -1 126 -5
133 -9 6 -5 12 -4 12 1 0 5 39 8 88 8 88 -2 172 9 172 22 0 4 -121 6 -268 4
-250 -2 -272 -1 -316 17 -66 29 -96 62 -96 107 0 79 110 142 293 166 82 11 86
12 60 24 l-28 12 25 2 c18 2 20 4 7 7 -10 3 -32 0 -48 -6 -27 -9 -42 -5 -132
39 -193 93 -326 124 -510 119 -74 -3 -117 0 -117 6 0 26 53 119 91 160 63 68
126 97 224 103 54 3 102 -1 145 -12 66 -16 310 -131 310 -146 0 -19 -34 -18
-61 1 -51 36 -194 98 -265 115 -164 38 -309 -18 -374 -146 -11 -22 -20 -41
-20 -42 0 -2 51 -3 113 -4 168 -2 315 -42 517 -144 87 -44 90 -45 90 -30 0 6
-20 23 -45 38 -51 30 -53 46 -10 70 17 9 32 19 35 22 3 3 16 11 30 18 25 12
42 22 90 53 59 39 180 99 199 99 12 0 21 4 21 9 0 23 175 46 230 30 69 -20
144 -74 152 -109 2 -8 7 -18 11 -21 5 -4 -20 -7 -55 -9 -136 -5 -154 -7 -181
-18 -16 -7 -34 -12 -41 -12 -15 0 -105 -28 -126 -39 -9 -5 -30 -12 -48 -16
-18 -3 -32 -11 -32 -16 0 -5 -7 -9 -15 -9 -9 0 -32 -10 -53 -23 -20 -13 -45
-27 -55 -30 -11 -4 -21 -16 -24 -27 -3 -11 -10 -17 -16 -13 -6 3 -7 1 -3 -5 5
-8 18 -4 44 13 53 35 211 102 311 132 66 19 117 26 219 30 72 3 132 7 132 10
0 2 -9 21 -20 43 -26 52 -81 103 -138 131 -61 30 -181 32 -262 5 -100 -34
-317 -151 -456 -247 -34 -23 -44 -26 -58 -16 -13 10 8 26 147 109 289 174 361
203 502 203 78 0 97 -4 146 -28 87 -42 153 -124 183 -223 7 -21 5 -22 -101
-17 -166 8 -322 -27 -497 -113 -39 -19 -77 -34 -86 -34 -9 0 -25 -7 -36 -16
-10 -8 -14 -13 -9 -10 6 2 17 1 24 -4 11 -6 9 -10 -8 -19 -14 -8 -21 -8 -21
-1 0 14 -130 -52 -154 -78 -27 -31 -15 -65 31 -85 50 -21 60 -24 184 -46 59
-10 129 -29 155 -41 27 -13 59 -23 71 -24 l22 -2 -21 23 c-26 28 -119 64 -171
67 -20 1 -36 6 -35 12 2 5 10 8 18 7 8 -1 26 7 41 18 15 10 50 30 79 43 31 14
46 26 38 30 -7 3 -4 4 7 3 11 -2 26 4 33 13 8 8 11 9 7 3 -4 -8 0 -13 10 -13
9 0 13 4 10 10 -3 5 0 8 7 5 7 -3 33 -1 58 4 25 5 36 10 25 11 -15 2 -12 4 10
10 28 7 28 8 5 9 -72 3 -235 -57 -325 -119 -38 -26 -52 -31 -88 -26 -48 5
-137 34 -152 49 -7 7 -7 8 0 4 6 -3 26 8 45 24 19 15 30 29 24 29 -6 0 -19 -9
-29 -20 -21 -24 -37 -26 -29 -5 4 8 10 13 14 10 4 -3 13 2 20 9 6 8 19 14 28
14 9 -1 44 16 77 36 223 137 493 210 679 182 l48 -8 -4 -43 c-1 -24 1 -41 5
-38 4 3 7 26 7 51 -1 26 3 62 8 80 8 24 8 32 -1 32 -8 0 -7 3 2 9 7 5 9 10 4
12 -5 2 -27 31 -48 64 -40 64 -90 115 -112 115 -7 0 -13 4 -13 9 0 5 -10 12
-22 16 -43 13 -48 15 -60 18 -7 2 -20 7 -29 11 -10 4 -23 7 -30 5 -35 -4 -79
2 -79 12 0 5 6 7 13 4 6 -4 0 3 -16 15 -15 12 -25 26 -22 31 4 5 0 7 -7 4 -7
-2 -24 -6 -38 -9 -14 -2 -43 -12 -65 -21 -22 -10 -44 -17 -48 -16 -5 1 -5 -4
-1 -10 4 -7 1 -10 -7 -7 -8 3 -16 13 -17 24 -2 10 -10 24 -18 30 -13 10 -13
12 1 18 8 3 15 11 15 19 0 7 25 31 55 53 48 34 66 54 50 54 -18 0 -75 -31 -75
-40 0 -6 -4 -9 -8 -6 -9 5 -48 -54 -44 -66 1 -4 -5 -5 -13 -2 -8 4 -12 10 -9
15 3 5 -1 9 -9 9 -8 0 -20 6 -26 14 -9 11 -7 15 11 20 19 4 53 47 59 74 1 4 5
17 9 28 6 14 4 29 -6 43 -14 19 -17 20 -43 7 -36 -19 -91 -134 -70 -147 9 -6
2 -7 -20 -4 -49 8 -53 13 -34 42 19 28 25 53 15 53 -4 0 -7 18 -8 41 0 49 -28
73 -60 51z m34 -79 c-2 -42 -8 -68 -15 -71 -10 -3 -13 15 -13 67 0 57 3 71 15
71 13 0 15 -12 13 -67z m-149 -22 c29 -57 30 -71 6 -71 -14 0 -59 106 -50 120
10 16 13 13 44 -49z m321 39 c0 -24 -51 -110 -65 -110 -20 0 -19 7 13 67 24
48 52 70 52 43z m-431 -134 c27 -27 39 -46 32 -50 -13 -9 -110 63 -111 82 0
26 37 10 79 -32z m305 -7 c54 -15 121 -80 140 -136 9 -26 15 -47 13 -48 -1 -1
-50 -27 -109 -58 l-108 -57 -38 24 c-21 13 -70 40 -109 60 l-72 36 15 45 c10
29 31 59 60 84 63 55 131 71 208 50z m-414 -98 c19 -5 47 -12 63 -15 15 -4 27
-13 27 -21 0 -18 -4 -18 -72 -3 -57 12 -81 25 -72 39 6 11 10 11 54 0z m750
-15 c0 -7 -28 -19 -66 -28 -56 -13 -66 -14 -71 -1 -7 18 -8 18 62 35 64 15 75
14 75 -6z m-725 -128 c71 -22 208 -89 220 -107 3 -6 -7 -18 -22 -27 -15 -9
-47 -30 -70 -46 l-42 -28 -53 20 c-46 18 -88 29 -218 56 -14 3 -43 7 -65 9
-22 1 -42 4 -45 5 -3 1 -18 3 -34 4 -16 0 -31 6 -33 12 -6 17 76 84 127 104
54 22 160 20 235 -2z"/>
<path d="M1817 1754 c-4 -4 -7 -14 -7 -23 -1 -16 -80 -81 -100 -81 -5 0 -10
-4 -10 -10 0 -33 97 14 123 60 14 24 9 69 -6 54z"/>
<path d="M810 1161 l65 -5 -65 -6 c-63 -6 -62 -7 30 -8 52 -1 115 2 140 5 l45
7 -40 7 c-22 4 -85 7 -140 6 -87 -1 -91 -2 -35 -6z"/>
<path d="M2099 1161 c11 -7 10 -10 -5 -14 -10 -2 6 -5 36 -5 30 0 46 3 36 5
-15 4 -16 7 -5 14 9 6 -1 9 -31 9 -30 0 -40 -3 -31 -9z"/>
<path d="M1925 1145 c-5 -2 -37 -11 -69 -20 -45 -13 -56 -19 -45 -27 10 -7 8
-8 -10 -5 -22 6 -71 -10 -71 -22 0 -4 -9 -7 -21 -8 -25 -2 -156 -83 -187 -116
-21 -22 -21 -24 -3 -22 23 1 53 24 46 35 -3 4 3 7 13 6 9 0 16 5 14 12 -1 8 2
11 7 8 14 -9 82 34 74 47 -4 6 0 8 10 4 20 -7 91 26 80 38 -4 4 -3 5 3 2 12
-7 118 25 110 33 -3 3 13 6 35 6 22 1 46 7 52 13 9 9 8 11 -7 5 -13 -5 -17 -4
-12 4 7 12 1 14 -19 7z"/>
<path d="M696 1095 c8 -47 25 -58 65 -46 l34 10 -39 -2 c-36 -2 -40 1 -52 33
-13 32 -14 33 -8 5z"/>
<path d="M848 1063 c23 -2 61 -2 85 0 23 2 4 4 -43 4 -47 0 -66 -2 -42 -4z"/>
<path d="M990 1054 c0 -5 -44 -8 -97 -8 l-98 2 115 -8 c63 -4 124 -4 135 1 13
5 15 8 5 9 -8 0 -25 3 -37 6 -13 4 -23 2 -23 -2z"/>
<path d="M2025 1050 l30 -7 -30 -5 c-18 -3 -4 -6 35 -7 36 -1 76 -4 90 -7 20
-4 22 -3 10 5 -12 9 -13 11 -1 11 8 0 23 -8 34 -17 11 -10 17 -12 12 -4 -6 10
-2 12 16 7 20 -6 21 -5 6 4 -9 6 -21 9 -26 5 -5 -3 -13 0 -16 5 -4 7 -26 9
-57 6 -31 -4 -47 -2 -43 4 4 6 -12 10 -42 9 -42 -1 -44 -2 -18 -9z"/>
<path d="M1291 994 c-42 -35 -43 -82 -1 -117 30 -26 95 -51 163 -63 58 -10 45
12 -15 27 -100 23 -158 59 -158 95 0 9 16 32 36 50 42 40 21 47 -25 8z"/>
<path d="M738 995 c22 -44 51 -59 118 -62 38 -1 62 2 59 7 -8 13 68 10 76 -3
4 -6 26 -7 55 -2 43 7 46 9 24 16 -37 10 -189 10 -235 -1 -38 -9 -41 -8 -73
28 -19 20 -29 28 -24 17z"/>
<path d="M2182 950 c-22 -29 -132 -110 -151 -110 -5 0 -13 -4 -16 -10 -11 -18
46 9 94 45 53 39 107 93 100 100 -3 3 -15 -9 -27 -25z"/>
<path d="M1930 805 c-25 -7 -36 -13 -25 -13 11 0 38 5 60 13 52 17 24 17 -35
0z"/>
<path d="M533 707 c-24 -5 -43 -14 -43 -18 0 -5 -7 -9 -16 -9 -8 0 -12 -4 -9
-10 3 -5 2 -10 -3 -10 -4 0 -9 -19 -10 -42 -2 -35 4 -49 28 -75 16 -18 34 -33
40 -33 5 0 10 -5 10 -11 0 -7 -10 -9 -25 -5 -17 4 -31 0 -44 -13 -17 -17 -18
-24 -9 -49 13 -32 13 -32 88 -37 35 -2 63 2 77 11 25 15 67 19 59 5 -3 -5 3
-11 13 -14 26 -6 81 22 82 42 0 11 4 9 11 -7 14 -28 48 -37 88 -24 18 7 32 7
35 1 10 -15 61 -10 76 7 7 9 13 31 12 50 0 19 1 34 4 34 2 0 12 -17 21 -38 20
-46 41 -67 63 -67 25 0 69 27 69 42 0 21 16 15 47 -16 27 -27 34 -29 99 -27
38 2 77 6 86 10 9 4 25 3 34 -2 19 -11 64 1 75 20 4 7 18 2 37 -12 29 -21 33
-22 55 -7 21 14 26 13 50 -1 22 -14 30 -14 45 -4 32 23 43 24 62 7 14 -12 28
-16 47 -11 32 8 35 8 81 5 20 -1 37 4 43 12 11 19 30 18 53 -3 24 -22 40 -23
60 -3 18 19 31 19 59 1 30 -19 106 -15 139 7 22 15 30 16 47 5 12 -7 21 -16
21 -20 0 -4 9 -5 20 -3 11 2 22 -1 25 -6 4 -5 11 -6 17 -3 5 4 30 8 54 9 53 4
71 20 68 60 -1 17 1 35 4 40 8 13 10 55 3 55 -3 0 -5 26 -5 57 2 70 -18 111
-52 109 -13 0 -26 -7 -29 -14 -3 -7 -10 -10 -15 -7 -6 4 -10 3 -9 -2 6 -32 -3
-53 -21 -53 -12 0 -32 -7 -45 -16 -13 -9 -29 -13 -35 -9 -5 3 -10 -1 -10 -9 0
-20 -14 -20 -34 -1 -8 8 -26 19 -40 24 -27 11 -96 3 -96 -10 0 -5 -7 -9 -15
-9 -8 0 -15 -5 -15 -10 0 -16 -33 -7 -48 13 -7 9 -23 17 -36 17 -13 0 -31 9
-41 20 -10 11 -14 20 -10 20 14 0 -25 38 -45 43 -25 7 -66 -33 -62 -60 2 -13
0 -23 -5 -24 -4 -1 -19 -2 -33 -3 -14 0 -31 -5 -39 -10 -10 -7 -12 -6 -6 4 6
10 4 12 -7 8 -11 -5 -15 1 -16 24 -1 37 -29 70 -56 66 -21 -3 -49 -47 -52 -80
-1 -10 -2 -23 -3 -30 -1 -7 -6 -6 -13 4 -14 18 -79 30 -98 18 -7 -4 -25 -4
-40 0 -21 6 -31 3 -50 -17 l-23 -24 -19 21 c-16 17 -30 21 -73 19 -30 -1 -60
-6 -66 -10 -6 -4 -25 -3 -41 1 -23 7 -33 4 -55 -16 -32 -29 -31 -29 -42 0 -7
16 -17 23 -33 22 -13 -1 -26 3 -30 9 -5 6 -8 6 -8 -2 0 -7 -10 -13 -22 -12
-13 0 -17 3 -10 6 6 2 10 9 6 14 -3 5 1 9 8 9 9 0 9 3 -2 10 -8 5 -11 10 -6
10 5 0 1 9 -9 20 -23 25 -46 25 -74 1 -17 -15 -21 -25 -15 -43 13 -40 13 -48
-4 -48 -8 0 -23 7 -33 16 -14 13 -34 18 -81 23 -3 1 -4 9 -1 19 9 37 -56 70
-82 42 -15 -17 -20 -18 -44 -6 -42 21 -63 24 -108 13z m90 -34 c10 -6 9 -43
-2 -43 -6 0 -13 5 -16 10 -9 14 -73 12 -78 -2 -8 -24 5 -39 55 -64 53 -27 74
-59 64 -98 -11 -44 -85 -68 -153 -50 -16 4 -23 14 -23 30 0 28 7 29 34 9 40
-30 107 -9 93 29 -3 8 -28 26 -55 41 -57 31 -76 62 -62 100 16 43 98 65 143
38z m117 -39 c0 -55 0 -55 22 -40 30 21 54 20 78 -4 16 -16 20 -33 20 -95 0
-73 -1 -75 -25 -75 -23 0 -24 3 -27 73 l-3 72 -30 0 -30 0 -3 -72 c-3 -70 -4
-73 -27 -73 l-25 0 0 128 c0 71 3 132 7 135 3 4 15 7 25 7 15 0 18 -8 18 -56z
m220 41 c10 -12 10 -18 0 -30 -25 -30 -61 -7 -46 30 3 8 12 15 19 15 8 0 20
-7 27 -15z m728 -65 c-2 -44 0 -80 4 -80 4 0 16 14 28 31 22 29 67 55 78 44 3
-3 -9 -20 -26 -38 -18 -18 -32 -37 -32 -41 0 -5 18 -30 41 -57 l41 -49 -35 0
c-31 0 -39 6 -64 45 -15 25 -31 45 -35 45 -4 0 -5 -20 -1 -45 6 -44 5 -45 -23
-45 l-29 0 0 127 c0 129 4 143 39 143 16 0 18 -7 14 -80z m212 23 c0 -54 1
-55 18 -40 23 21 52 22 77 3 16 -12 20 -29 23 -95 l4 -81 -28 0 c-29 0 -29 1
-26 50 6 78 -3 102 -36 98 -26 -3 -27 -5 -30 -75 -3 -72 -3 -73 -30 -73 l-27
0 0 127 c0 128 4 143 38 143 14 0 17 -9 17 -57z m550 -78 l0 -135 -25 0 c-14
0 -25 5 -25 12 0 9 -3 9 -12 0 -14 -14 -62 -16 -87 -2 -10 5 -24 23 -31 39
-34 82 40 168 111 130 19 -10 20 -8 19 33 -3 59 -3 58 25 58 l25 0 0 -135z
m-1795 55 c3 -5 0 -10 -7 -10 -10 0 -10 -2 1 -9 8 -5 9 -11 3 -15 -5 -3 -21 3
-33 15 -13 11 -19 18 -12 15 6 -4 14 -2 18 4 8 13 22 13 30 0z m305 -95 c0
-95 0 -95 -25 -95 -25 0 -25 1 -25 89 0 85 1 90 23 94 12 2 23 5 25 6 1 0 2
-42 2 -94z m111 26 c13 -39 26 -68 29 -66 4 2 15 31 25 64 16 54 38 81 53 66
3 -3 -10 -45 -30 -93 -29 -72 -39 -87 -59 -90 -22 -2 -27 6 -57 85 -18 48 -32
91 -32 96 0 4 11 7 24 7 22 0 28 -9 47 -69z m264 55 c14 -10 20 -30 23 -77 2
-35 8 -69 13 -75 5 -6 6 -14 2 -17 -10 -11 -53 -8 -53 3 0 7 -6 7 -19 0 -48
-25 -101 -1 -101 45 0 28 42 55 85 55 29 0 33 21 9 41 -13 11 -21 11 -44 -3
-26 -15 -29 -15 -35 -1 -7 19 -6 19 25 32 36 14 73 13 95 -3z m125 -2 c0 -14
2 -14 22 0 12 9 32 16 44 16 37 0 52 -29 56 -112 l3 -78 -27 0 -28 0 0 75 c0
72 -1 75 -24 75 -38 0 -49 -23 -43 -90 l5 -60 -29 0 -29 0 0 89 c0 77 2 90 18
94 30 8 32 7 32 -9z m745 -9 c14 -13 25 -36 25 -50 0 -24 -2 -25 -60 -25 -64
0 -73 -9 -43 -42 18 -20 68 -24 79 -7 4 8 10 7 18 -1 18 -18 -21 -40 -71 -40
-61 0 -93 32 -93 94 0 37 5 48 31 70 39 33 82 34 114 1z m-385 -49 c0 -8 -7
-19 -15 -26 -12 -10 -16 -9 -21 4 -7 18 13 49 27 40 5 -3 9 -11 9 -18z"/>
<path d="M2331 566 c-18 -21 -10 -97 12 -110 28 -18 52 4 55 53 3 46 -10 71
-38 71 -10 0 -23 -6 -29 -14z"/>
<path d="M1265 496 c-25 -18 -13 -49 17 -44 17 2 24 11 26 31 4 30 -12 36 -43
13z"/>
<path d="M2116 565 c-11 -30 -6 -35 30 -35 31 0 35 3 32 23 -4 28 -52 37 -62
12z"/>
</g>
</svg>
